# xmcd
#
# Track frame offsets:
#	150
#	18100
#	33777
#	51652
#	70385
#	85710
#	101605
#	117162
#	130317
#	145885
#	162932
#	184182
#	201570
#	218337
#
# Disc length: 3074 seconds
#
# Revision: 1
# Processed by: cddbd v1.5.1PL0 Copyright (c) Steve Scherf et al.
# Submitted via: audiograbber 1.81.02
#
DISCID=c40c000e
DTITLE=compilação - Canta Coração
DYEAR=2000
DGENRE=Golpel
TTITLE0=Pe. Zézinho SCJ - Não mais Cucedera
TTITLE1=Fabio de Melo SCJ - Canta Coração
TTITLE2=André Luna SCJ e Fabio de Melo SCJ - Caminharemos Juntos
TTITLE3=André Luna SCJ - Razão de Viver
TTITLE4=Pe. Joãozinho SCJ - Mestre
TTITLE5=André Luna SCJ - Rostos Marcados
TTITLE6=Fabio de Melo SCJ - Vai chegar o tempo
TTITLE7=Pe. Zézinho SCJ - Fome de Paz
TTITLE8=André Luna SCJ e Paulo César SCJ - Recado de Deus
TTITLE9=Fabio de Melo SCJ - Vou cantar teu Amor
TTITLE10=André Luna SCJ - Varandas
TTITLE11=Pe. Zézinho SCJ - Canção dos Imperfeitos
TTITLE12=Pe. Joãozino SCJ, Fabio de Melo SCJ, André Luna SCJ, Renam SCJ - Razoe
TTITLE12=s do Coração
TTITLE13=Pe. Zézinho - Debaixo dos Salgueiros
EXTD=
EXTT0=
EXTT1=
EXTT2=
EXTT3=
EXTT4=
EXTT5=
EXTT6=
EXTT7=
EXTT8=
EXTT9=
EXTT10=
EXTT11=
EXTT12=
EXTT13=
PLAYORDER=
